<mxfile host="app.diagrams.net" modified="2022-02-13T16:42:31.936Z" agent="5.0 (Windows)" etag="D6iOzryElVP7SwuWmmNK" version="16.2.7" type="github">
  <diagram id="DhF0_wdm7kW2o_CkX-2b" name="Page-1">
    <mxGraphModel dx="942" dy="572" grid="1" gridSize="10" guides="1" tooltips="1" connect="1" arrows="1" fold="1" page="1" pageScale="1" pageWidth="827" pageHeight="1169" math="0" shadow="0">
      <root>
        <mxCell id="0" />
        <mxCell id="1" parent="0" />
        <mxCell id="bz9Mvd529WpSVVnzT8PL-1" value="" style="rounded=1;whiteSpace=wrap;html=1;fontSize=19;fillColor=#f5f5f5;fontColor=#333333;strokeColor=#666666;gradientColor=#ffffff;" vertex="1" parent="1">
          <mxGeometry x="180" y="290" width="240" height="200" as="geometry" />
        </mxCell>
        <mxCell id="bz9Mvd529WpSVVnzT8PL-15" style="edgeStyle=orthogonalEdgeStyle;rounded=0;orthogonalLoop=1;jettySize=auto;html=1;exitX=0.5;exitY=0;exitDx=0;exitDy=0;exitPerimeter=0;fontSize=19;" edge="1" parent="1" source="bz9Mvd529WpSVVnzT8PL-2" target="bz9Mvd529WpSVVnzT8PL-3">
          <mxGeometry relative="1" as="geometry" />
        </mxCell>
        <mxCell id="bz9Mvd529WpSVVnzT8PL-2" value="" style="shape=mxgraph.signs.transportation.car_4;html=1;pointerEvents=1;fillColor=#000000;strokeColor=none;verticalLabelPosition=bottom;verticalAlign=top;align=center;sketch=0;fontSize=19;" vertex="1" parent="1">
          <mxGeometry x="192" y="429.5" width="98" height="86" as="geometry" />
        </mxCell>
        <mxCell id="bz9Mvd529WpSVVnzT8PL-16" style="edgeStyle=orthogonalEdgeStyle;rounded=0;orthogonalLoop=1;jettySize=auto;html=1;exitX=1;exitY=0.5;exitDx=0;exitDy=0;entryX=0;entryY=0.5;entryDx=0;entryDy=0;fontSize=19;" edge="1" parent="1" source="bz9Mvd529WpSVVnzT8PL-3" target="bz9Mvd529WpSVVnzT8PL-11">
          <mxGeometry relative="1" as="geometry" />
        </mxCell>
        <mxCell id="bz9Mvd529WpSVVnzT8PL-3" value="&lt;div&gt;&lt;font style=&quot;font-size: 15px&quot;&gt;Perception&lt;/font&gt;&lt;/div&gt;&lt;div&gt;&lt;font style=&quot;font-size: 15px&quot;&gt;&lt;br&gt;&lt;/font&gt;&lt;/div&gt;" style="rounded=1;whiteSpace=wrap;html=1;fontSize=19;fillColor=#CCCCCC;gradientColor=#ffffff;" vertex="1" parent="1">
          <mxGeometry x="201" y="300" width="80" height="60" as="geometry" />
        </mxCell>
        <mxCell id="bz9Mvd529WpSVVnzT8PL-18" style="edgeStyle=orthogonalEdgeStyle;rounded=0;orthogonalLoop=1;jettySize=auto;html=1;exitX=0.5;exitY=1;exitDx=0;exitDy=0;fontSize=19;" edge="1" parent="1" source="bz9Mvd529WpSVVnzT8PL-11" target="bz9Mvd529WpSVVnzT8PL-13">
          <mxGeometry relative="1" as="geometry" />
        </mxCell>
        <mxCell id="bz9Mvd529WpSVVnzT8PL-11" value="&lt;div&gt;&lt;font style=&quot;font-size: 15px&quot;&gt;Planning&lt;/font&gt;&lt;/div&gt;&lt;div&gt;&lt;font style=&quot;font-size: 15px&quot;&gt;&lt;br&gt;&lt;/font&gt;&lt;/div&gt;" style="rounded=1;whiteSpace=wrap;html=1;fontSize=19;fillColor=#CCCCCC;gradientColor=#ffffff;" vertex="1" parent="1">
          <mxGeometry x="321" y="300" width="82" height="60" as="geometry" />
        </mxCell>
        <mxCell id="bz9Mvd529WpSVVnzT8PL-19" style="edgeStyle=orthogonalEdgeStyle;rounded=0;orthogonalLoop=1;jettySize=auto;html=1;exitX=0.5;exitY=1;exitDx=0;exitDy=0;entryX=1.031;entryY=0.581;entryDx=0;entryDy=0;entryPerimeter=0;fontSize=19;" edge="1" parent="1" source="bz9Mvd529WpSVVnzT8PL-13" target="bz9Mvd529WpSVVnzT8PL-2">
          <mxGeometry relative="1" as="geometry" />
        </mxCell>
        <mxCell id="bz9Mvd529WpSVVnzT8PL-13" value="&lt;div&gt;&lt;font style=&quot;font-size: 15px&quot;&gt;Control&lt;/font&gt;&lt;/div&gt;&lt;div&gt;&lt;font style=&quot;font-size: 15px&quot;&gt;&lt;br&gt;&lt;/font&gt;&lt;/div&gt;" style="rounded=1;whiteSpace=wrap;html=1;fontSize=19;fillColor=#CCCCCC;gradientColor=#ffffff;" vertex="1" parent="1">
          <mxGeometry x="322" y="400" width="80" height="60" as="geometry" />
        </mxCell>
        <mxCell id="bz9Mvd529WpSVVnzT8PL-17" style="edgeStyle=orthogonalEdgeStyle;rounded=0;orthogonalLoop=1;jettySize=auto;html=1;exitX=0.5;exitY=1;exitDx=0;exitDy=0;fontSize=19;" edge="1" parent="1" source="bz9Mvd529WpSVVnzT8PL-13" target="bz9Mvd529WpSVVnzT8PL-13">
          <mxGeometry relative="1" as="geometry" />
        </mxCell>
        <mxCell id="bz9Mvd529WpSVVnzT8PL-20" value="&lt;div align=&quot;left&quot;&gt;&amp;nbsp;Planning Check &lt;br&gt;&lt;/div&gt;&lt;div align=&quot;left&quot;&gt;&amp;nbsp;&amp;nbsp;&amp;nbsp;&amp;nbsp; Module&lt;br&gt;&lt;/div&gt;" style="rounded=1;whiteSpace=wrap;html=1;fontSize=15;fillColor=#7EA6E0;strokeColor=#6c8ebf;gradientColor=#ffffff;align=left;" vertex="1" parent="1">
          <mxGeometry x="471.75" y="335" width="120" height="67.5" as="geometry" />
        </mxCell>
        <mxCell id="bz9Mvd529WpSVVnzT8PL-22" value="" style="shape=singleArrow;direction=west;whiteSpace=wrap;html=1;fontSize=15;" vertex="1" parent="1">
          <mxGeometry x="380" y="370" width="80" height="20" as="geometry" />
        </mxCell>
        <mxCell id="bz9Mvd529WpSVVnzT8PL-23" value="" style="shape=singleArrow;direction=west;whiteSpace=wrap;html=1;fontSize=15;" vertex="1" parent="1">
          <mxGeometry x="380" y="463.75" width="80" height="17.5" as="geometry" />
        </mxCell>
        <mxCell id="bz9Mvd529WpSVVnzT8PL-24" value="&lt;div align=&quot;left&quot;&gt;&amp;nbsp;Instant Check&lt;/div&gt;&lt;div align=&quot;left&quot;&gt;&amp;nbsp;&amp;nbsp;&amp;nbsp;&amp;nbsp; Module&lt;br&gt;&lt;/div&gt;" style="rounded=1;whiteSpace=wrap;html=1;fontSize=15;fillColor=#7EA6E0;strokeColor=#6c8ebf;gradientColor=#ffffff;align=left;" vertex="1" parent="1">
          <mxGeometry x="471.75" y="429.5" width="120" height="67.5" as="geometry" />
        </mxCell>
        <mxCell id="bz9Mvd529WpSVVnzT8PL-26" value="" style="shape=mxgraph.signs.healthcare.eye;html=1;pointerEvents=1;fillColor=#000000;strokeColor=none;verticalLabelPosition=bottom;verticalAlign=top;align=center;sketch=0;fontSize=15;" vertex="1" parent="1">
          <mxGeometry x="221" y="335" width="40" height="20" as="geometry" />
        </mxCell>
        <mxCell id="bz9Mvd529WpSVVnzT8PL-29" value="" style="shape=mxgraph.signs.healthcare.mental_health;html=1;pointerEvents=1;fillColor=#000000;strokeColor=none;verticalLabelPosition=bottom;verticalAlign=top;align=center;sketch=0;fontSize=15;" vertex="1" parent="1">
          <mxGeometry x="340" y="330" width="28" height="30" as="geometry" />
        </mxCell>
        <mxCell id="bz9Mvd529WpSVVnzT8PL-32" value="" style="shape=mxgraph.signs.travel.point_of_interest;html=1;pointerEvents=1;fillColor=#000000;strokeColor=none;verticalLabelPosition=bottom;verticalAlign=top;align=center;sketch=0;fontSize=15;" vertex="1" parent="1">
          <mxGeometry x="348" y="429.5" width="28" height="29" as="geometry" />
        </mxCell>
        <mxCell id="bz9Mvd529WpSVVnzT8PL-34" value="" style="aspect=fixed;perimeter=ellipsePerimeter;html=1;align=center;shadow=0;dashed=0;fontColor=#4277BB;labelBackgroundColor=#ffffff;fontSize=12;spacingTop=3;image;image=img/lib/ibm/vpc/VPNGateway.svg;fillColor=#CCCCCC;gradientColor=#ffffff;" vertex="1" parent="1">
          <mxGeometry x="551" y="370" width="30" height="30" as="geometry" />
        </mxCell>
        <mxCell id="bz9Mvd529WpSVVnzT8PL-35" value="" style="aspect=fixed;perimeter=ellipsePerimeter;html=1;align=center;shadow=0;dashed=0;fontColor=#4277BB;labelBackgroundColor=#ffffff;fontSize=12;spacingTop=3;image;image=img/lib/ibm/vpc/VPNConnection.svg;fillColor=#CCCCCC;gradientColor=#ffffff;" vertex="1" parent="1">
          <mxGeometry x="553" y="463.75" width="30.75" height="30.75" as="geometry" />
        </mxCell>
      </root>
    </mxGraphModel>
  </diagram>
</mxfile>
